# xmcd
#
# Track frame offsets: 
#        150
#        14137
#        26172
#        38380
#        49200
#        65087
#        87627
#        101022
#        117997
#        132430
#        148297
#        166260
#        183867
#
# Disc length: 2629 seconds
#
# Revision: 0
# Processed by: cddbd v1.5.2PL0 Copyright (c) Steve Scherf et al.
# Submitted via: ExactAudioCopy v0.95a5
#
DISCID=bf0a430d
DTITLE=The Flying Burrito Bros - Live In Europe
DYEAR=1900
DGENRE=Country
TTITLE0=Wheels
TTITLE1=When It All Comes Down To Love
TTITLE2=Cannonball Rag
TTITLE3=Help Wanted
TTITLE4=Silver Wings
TTITLE5=Wild Horses
TTITLE6=Sweet Suzanna
TTITLE7=Big Bayou
TTITLE8=Sweet Little Collete
TTITLE9=White Line Fever
TTITLE10=Hickory Wind
TTITLE11=You Ain't Going Nowhere
TTITLE12=Dim Lights, Thick Smoke
EXTD=
EXTT0=
EXTT1=
EXTT2=
EXTT3=
EXTT4=
EXTT5=
EXTT6=
EXTT7=
EXTT8=
EXTT9=
EXTT10=
EXTT11=
EXTT12=
PLAYORDER=
